<?xml version="1.0" encoding="utf-8"?>
<!-- Generator: Adobe Illustrator 19.0.0, SVG Export Plug-In . SVG Version: 6.00 Build 0)  -->
<svg version="1.1" id="Camada_1" xmlns="http://www.w3.org/2000/svg" xmlns:xlink="http://www.w3.org/1999/xlink" x="0px" y="0px"
	 width="157.8px" height="76.9px" viewBox="0 0 157.8 76.9" style="enable-background:new 0 0 157.8 76.9;" xml:space="preserve">
<style type="text/css">
	.st0{fill:#EF3E3C;}
</style>
<path class="st0" d="M68,7.1c0,0.7-0.1,1.3-0.3,1.9l-8,36c-1.1,5.3-5.2,8.9-10.1,8.9c-5.1,0-9.5-3.7-10.5-8.7l-5.3-25.6l-5,25.3
	c-1,5.3-5.2,8.9-10.6,8.9c-5.3,0-9.7-3.6-10.8-9.1L0.2,8.9C0.1,8.4,0,7.8,0,7.1C0,3.1,3,0,7,0c3.5,0,6.7,2.5,7.1,5.5L18.6,35
	l4.8-25.2c1.1-6,5.1-9.8,10.6-9.8c5.3,0,9.4,3.9,10.6,9.9l5,25.2L54,5.3C55,2.1,57.8,0,61,0C65.6,0,68,3.7,68,7.1z M75.1,53.9
	c3.2,0,6-2.1,6.9-5.3l4.6-29.7l5,25.2c1.1,6,5.3,9.9,10.6,9.9c5.4,0,9.5-3.8,10.6-9.8l4.8-25.2l4.5,29.5c0.4,3,3.6,5.5,7.1,5.5
	c4,0,7-3.1,7-7.1c0-0.7-0.1-1.3-0.2-1.8l-7.3-35.9C127.4,3.6,123,0,117.7,0c-5.3,0-9.6,3.6-10.6,8.9l-5,25.3L96.9,8.7
	C95.9,3.7,91.5,0,86.4,0c-4.9,0-9,3.6-10.1,8.9l-8,36c-0.2,0.6-0.3,1.2-0.3,1.9C68,50.2,70.5,53.9,75.1,53.9z M9.9,62.8
	c0,0.1,0,0.1,0,0.2l1.6,7.5c0.1,0.6,0.6,1,1.2,1c0.5,0,1-0.4,1.2-1l1.7-6.8c0,0,0.1,0,0.1,0l1.7,6.8c0.3,1.3,2.1,1.3,2.3,0l1.7-7.5
	c0-0.1,0-0.1,0-0.2c0-0.4-0.3-0.7-0.7-0.7c-0.3,0-0.6,0.2-0.7,0.6L18.6,70c0,0.1-0.1,0.1-0.1,0l-1.7-6.9c-0.2-0.7-0.7-1-1.2-1
	c-0.5,0-1,0.4-1.2,1L12.8,70c0,0-0.1,0-0.1,0l-1.4-7.4c-0.1-0.3-0.4-0.5-0.7-0.5C10.1,62.1,9.9,62.4,9.9,62.8z M23.9,62.1
	c-0.7,0-1.1,0.4-1.1,1.1v7.1c0,0.6,0.4,1.1,1.1,1.1h4.4c0.4,0,0.7-0.3,0.7-0.7c0-0.4-0.3-0.7-0.7-0.7h-4.1v-2.6h3.9
	c0.3,0,0.7-0.3,0.7-0.7c0-0.4-0.3-0.7-0.7-0.7h-3.9v-2.5h4.1c0.4,0,0.7-0.3,0.7-0.7s-0.3-0.7-0.7-0.7H23.9z M37.9,68.7
	c0-1.1-0.5-1.9-1.5-2.1v0c0.8-0.3,1.2-1,1.2-2c0-0.7-0.2-1.2-0.7-1.7c-0.5-0.5-1.1-0.7-1.9-0.7h-2.9c-0.7,0-1.1,0.5-1.1,1.1v7
	c0,0.6,0.4,1.1,1.1,1.1h3C36.8,71.3,37.9,70.4,37.9,68.7z M32.4,63.4h2.4c0.9,0,1.4,0.4,1.4,1.3c0,0.8-0.5,1.3-1.4,1.3h-2.4V63.4z
	 M35,67.2c0.9,0,1.5,0.5,1.5,1.4c0,0.9-0.5,1.4-1.6,1.4h-2.5v-2.8H35z M53.7,70.6c0-0.1,0-0.1,0-0.2l-1-7.2C52.5,62.5,52,62,51.3,62
	c-0.7,0-1.2,0.4-1.4,1.2l-1.4,6.5c0,0.1-0.1,0.1-0.1,0.1c-0.1,0-0.1,0-0.1-0.1l-1.4-6.5c-0.2-0.8-0.7-1.2-1.4-1.2
	c-0.7,0-1.2,0.4-1.3,1.3l-1,7.2c0,0,0,0.1,0,0.2c0,0.4,0.2,0.7,0.7,0.7c0.4,0,0.7-0.2,0.7-0.6l0.9-7.2c0-0.2,0.2-0.2,0.2,0l1.5,6.6
	c0.2,0.7,0.6,1.1,1.3,1.1c0.6,0,1.1-0.4,1.3-1.1l1.5-6.6c0-0.1,0.1-0.1,0.1-0.1c0.1,0,0.1,0,0.1,0.1l0.9,7.2c0,0.3,0.3,0.6,0.7,0.6
	C53.4,71.4,53.7,71.1,53.7,70.6z M63.2,70.6c0-0.1,0-0.2,0-0.2l-2.6-7.3c-0.3-0.7-0.8-1.1-1.5-1.1c-0.7,0-1.3,0.4-1.5,1.1L55,70.4
	c0,0.1,0,0.2,0,0.3c0,0.4,0.3,0.7,0.7,0.7c0.3,0,0.5-0.1,0.7-0.4l0.9-2.5H61l0.9,2.4c0.1,0.3,0.3,0.5,0.7,0.5
	C63,71.3,63.2,71,63.2,70.6z M58.8,63.6c0-0.1,0.1-0.2,0.3-0.2c0.1,0,0.2,0.1,0.3,0.2l1.2,3.5h-3L58.8,63.6z M67.9,71.3
	c1.3,0,2.3-0.4,3-1.1c0.7-0.7,1.1-1.7,1.2-2.8c0-0.5,0-1,0-1.4c-0.1-2.4-1.6-3.9-4.2-3.9h-2.1c-0.7,0-1.1,0.4-1.1,1.1v7.1
	c0,0.6,0.4,1.1,1.1,1.1H67.9z M70.7,67.3c-0.1,1.6-1,2.6-2.8,2.6h-1.8v-6.4h1.8c1.8,0,2.7,0.9,2.8,2.6
	C70.7,66.4,70.7,66.8,70.7,67.3z M75.2,62.1c-0.7,0-1.1,0.4-1.1,1.1v7.1c0,0.6,0.4,1.1,1.1,1.1h4.4c0.4,0,0.7-0.3,0.7-0.7
	c0-0.4-0.3-0.7-0.7-0.7h-4.1v-2.6h3.9c0.3,0,0.7-0.3,0.7-0.7c0-0.4-0.3-0.7-0.7-0.7h-3.9v-2.5h4.1c0.4,0,0.7-0.3,0.7-0.7
	s-0.3-0.7-0.7-0.7H75.2z M82.3,70.6c0,0.4,0.3,0.7,0.7,0.7c0.4,0,0.7-0.3,0.7-0.7v-7.8c0-0.4-0.3-0.7-0.7-0.7
	c-0.4,0-0.7,0.3-0.7,0.7V70.6z M88.8,67.9c0.3,0,0.5,0.1,0.7,0.4l2.3,2.8c0.3,0.3,0.7,0.3,1,0c0.3-0.2,0.3-0.7,0-1l-2.1-2.6
	c1.2-0.3,2-1.1,2-2.6c0-0.9-0.3-1.6-0.9-2.1c-0.6-0.5-1.3-0.8-2.2-0.8h-2.7c-0.6,0-1,0.4-1,1v7.5c0,0.4,0.3,0.7,0.7,0.7
	c0.4,0,0.7-0.3,0.7-0.7v-2.7H88.8z M87.4,63.5h2.2c1.1,0,1.7,0.5,1.7,1.5c0,1-0.6,1.5-1.8,1.5h-2.1V63.5z M102.3,70.6
	c0-0.1,0-0.2,0-0.2l-2.6-7.3c-0.3-0.7-0.8-1.1-1.5-1.1c-0.7,0-1.3,0.4-1.5,1.1l-2.6,7.3c0,0.1,0,0.2,0,0.3c0,0.4,0.3,0.7,0.7,0.7
	c0.3,0,0.5-0.1,0.7-0.4l0.9-2.5h3.9l0.9,2.4c0.1,0.3,0.3,0.5,0.7,0.5C102.1,71.3,102.3,71,102.3,70.6z M97.9,63.6
	c0-0.1,0.1-0.2,0.3-0.2c0.1,0,0.2,0.1,0.3,0.2l1.2,3.5h-3L97.9,63.6z M112.1,73.4c0.2-0.4,0.7-0.7,1.4-1.1l1.1-0.7l0.7-0.4
	c1.2-0.7,1.9-1.1,2.7-2c0.9-0.8,1.3-1.8,1.3-3c0-1.2-0.4-2.3-1.3-3.1c-0.9-0.8-2-1.2-3.4-1.2c-2.1,0-4,1-5.1,2.4
	c-0.4,0.4-0.5,0.9-0.5,1.2c0,0.9,0.7,1.5,1.6,1.5c0.1,0,0.2,0,0.4,0c0.3-0.1,0.6-0.3,1.1-0.7c0.9-0.7,1.6-1.1,2.4-1.1
	c0.9,0,1.4,0.5,1.4,1.1c0,0.6-0.7,1.4-1.4,1.8c-0.4,0.2-0.9,0.5-1.5,0.9c-0.7,0.4-1.2,0.7-1.6,0.9c-1.9,1.3-3.1,2.6-3.4,3.9
	c-0.2,0.7-0.1,1.4,0.2,2c0.3,0.6,0.9,0.9,1.7,0.9h6.5c1.2,0,2.1-0.8,2.1-1.8c0-0.9-0.6-1.6-1.6-1.6H112.1z M126.8,76.9
	c2.9,0,5.2-1.8,5.9-5.6c0.2-1,0.4-2,0.5-3.1c0.1-1.7-0.3-3.1-1.4-4.3c-1-1.2-2.5-1.9-4.4-1.9c-3.1,0-5.3,1.9-6.1,5.7
	c-0.2,1.1-0.4,2.2-0.4,3.1C120.6,73.9,122.9,77,126.8,76.9z M126.7,73.6c-1.6,0-2.6-1.1-2.4-3c0-0.2,0.1-1.1,0.4-2.5
	c0.3-1.9,1.2-2.9,2.7-2.9c1.5,0,2.6,1.2,2.4,3c0,0.4-0.2,1.2-0.4,2.5C129.1,72.7,128.2,73.6,126.7,73.6z M139.6,76.8
	c0.9,0,1.5-0.6,1.7-1.7l1.9-11.3c0.2-1.1-0.5-1.8-1.4-1.8c-0.4,0-0.8,0.1-1.2,0.4l-4.3,2.2c-0.8,0.4-1.2,1-1.2,1.7
	c0,0.9,0.7,1.6,1.6,1.6c0.3,0,0.6-0.1,0.9-0.2l1.8-0.9l-1.4,8.1C137.8,76,138.6,76.8,139.6,76.8z M151.4,76.9c1.6,0,3-0.5,4.1-1.6
	c1.1-1.1,1.7-2.4,1.7-4.1c0-1.2-0.4-2.2-1.1-3c-0.8-0.9-1.9-1.3-3.3-1.3c-0.9,0-1.9,0.2-2.9,0.7c0.6-1.8,1.9-2.4,3.9-2.4
	c0.3,0,0.7,0,1.1,0.1c0.5,0,0.8,0.1,1,0.1c1.1,0,1.8-0.6,1.8-1.7c0-0.6-0.3-1-0.9-1.3c-0.6-0.3-1.6-0.4-3-0.4
	c-2.6,0-4.8,1.1-6.1,2.9c-1.2,1.8-1.9,4-1.9,6.6c0,1.6,0.5,2.9,1.4,4C148.2,76.4,149.6,76.9,151.4,76.9z M151.3,73.6
	c-1.3,0-2.1-0.6-2.1-2.1c0-0.3,0-0.5,0.1-0.8c0.7-0.5,1.5-0.7,2.6-0.7c1.1,0,1.9,0.5,1.9,1.5C153.8,72.8,152.7,73.6,151.3,73.6z
	 M157.6,45.7c-0.9-3.8-4.8-6.2-8.6-5.3c-3.8,0.9-6.2,4.8-5.3,8.6c0.5,2.2,2.1,4,4,4.8L147,58c0,0.2,0.2,0.3,0.4,0.2
	c0,0,7.4-5.1,7.4-5.1C157.1,51.6,158.2,48.6,157.6,45.7z"/>
</svg>
